HIERARCHY
ROOT Hips
{
	OFFSET -338.882294 -555.210510 88.995560
	CHANNELS 6 Xposition Yposition Zposition Zrotation Yrotation Xrotation
	JOINT Spine
	{
		OFFSET 0.000000 2.080078 8.814247
		CHANNELS 6 Xposition Yposition Zposition Zrotation Yrotation Xrotation
		JOINT Spine1
		{
			OFFSET 0.000000 0.000000 8.844139
			CHANNELS 6 Xposition Yposition Zposition Zrotation Yrotation Xrotation
			JOINT Spine2
			{
				OFFSET 0.000000 0.000000 11.682266
				CHANNELS 6 Xposition Yposition Zposition Zrotation Yrotation Xrotation
				JOINT Spine3
				{
					OFFSET 0.000000 0.000000 11.746704
					CHANNELS 6 Xposition Yposition Zposition Zrotation Yrotation Xrotation
					JOINT Neck
					{
						OFFSET 0.000000 0.000000 17.658264
						CHANNELS 6 Xposition Yposition Zposition Zrotation Yrotation Xrotation
						JOINT Neck1
						{
							OFFSET 0.000000 0.000000 5.101517
							CHANNELS 6 Xposition Yposition Zposition Zrotation Yrotation Xrotation
							JOINT Head
							{
								OFFSET 0.000000 0.000000 5.101517
								CHANNELS 6 Xposition Yposition Zposition Zrotation Yrotation Xrotation
								JOINT HeadEnd
								{
									OFFSET 0.000000 0.000000 11.655090
									CHANNELS 6 Xposition Yposition Zposition Zrotation Yrotation Xrotation
									End Site
									{
										OFFSET 0.000000 0.000000 0.100006
									}
								}
							}
						}
					}
					JOINT RightShoulder
					{
						OFFSET -2.625397 0.000000 11.175217
						CHANNELS 6 Xposition Yposition Zposition Zrotation Yrotation Xrotation
						JOINT RightArm
						{
							OFFSET 0.000000 0.000000 10.434723
							CHANNELS 6 Xposition Yposition Zposition Zrotation Yrotation Xrotation
							JOINT RightForeArm
							{
								OFFSET 0.000000 0.000000 29.628418
								CHANNELS 6 Xposition Yposition Zposition Zrotation Yrotation Xrotation
								JOINT RightHand
								{
									OFFSET 0.000000 0.000000 22.857605
									CHANNELS 6 Xposition Yposition Zposition Zrotation Yrotation Xrotation
									JOINT RightHandThumb1
									{
										OFFSET -2.867310 -2.944275 3.959564
										CHANNELS 6 Xposition Yposition Zposition Zrotation Yrotation Xrotation
										JOINT RightHandThumb2
										{
											OFFSET 0.000000 0.000000 3.350403
											CHANNELS 6 Xposition Yposition Zposition Zrotation Yrotation Xrotation
											JOINT RightHandThumb3
											{
												OFFSET 0.000000 0.000000 3.756516
												CHANNELS 6 Xposition Yposition Zposition Zrotation Yrotation Xrotation
												JOINT RightHandThumb4
												{
													OFFSET 0.000000 0.000000 3.147339
													CHANNELS 6 Xposition Yposition Zposition Zrotation Yrotation Xrotation
													End Site
													{
														OFFSET 0.000000 0.000000 0.100006
													}
												}
											}
										}
									}
									JOINT RightHandIndex1
									{
										OFFSET -0.086761 -2.345276 10.030899
										CHANNELS 6 Xposition Yposition Zposition Zrotation Yrotation Xrotation
										JOINT RightHandIndex2
										{
											OFFSET 0.000000 0.000000 4.061096
											CHANNELS 6 Xposition Yposition Zposition Zrotation Yrotation Xrotation
											JOINT RightHandIndex3
											{
												OFFSET 0.000000 0.000000 3.248871
												CHANNELS 6 Xposition Yposition Zposition Zrotation Yrotation Xrotation
												JOINT RightHandIndex4
												{
													OFFSET 0.000000 0.000000 2.639709
													CHANNELS 6 Xposition Yposition Zposition Zrotation Yrotation Xrotation
													End Site
													{
														OFFSET 0.000000 0.000000 0.100006
													}
												}
											}
										}
									}
									JOINT RightHandMiddle1
									{
										OFFSET 0.104095 -0.006775 9.502945
										CHANNELS 6 Xposition Yposition Zposition Zrotation Yrotation Xrotation
										JOINT RightHandMiddle2
										{
											OFFSET 0.000000 0.000000 4.568726
											CHANNELS 6 Xposition Yposition Zposition Zrotation Yrotation Xrotation
											JOINT RightHandMiddle3
											{
												OFFSET 0.000000 0.000000 3.654984
												CHANNELS 6 Xposition Yposition Zposition Zrotation Yrotation Xrotation
												JOINT RightHandMiddle4
												{
													OFFSET 0.000000 0.000000 2.741241
													CHANNELS 6 Xposition Yposition Zposition Zrotation Yrotation Xrotation
													End Site
													{
														OFFSET 0.000000 0.000000 0.100006
													}
												}
											}
										}
									}
									JOINT RightHandRing1
									{
										OFFSET 0.086761 2.267456 8.921707
										CHANNELS 6 Xposition Yposition Zposition Zrotation Yrotation Xrotation
										JOINT RightHandRing2
										{
											OFFSET 0.000000 0.000000 4.061096
											CHANNELS 6 Xposition Yposition Zposition Zrotation Yrotation Xrotation
											JOINT RightHandRing3
											{
												OFFSET 0.000000 0.000000 3.654984
												CHANNELS 6 Xposition Yposition Zposition Zrotation Yrotation Xrotation
												JOINT RightHandRing4
												{
													OFFSET 0.000000 0.000000 2.741241
													CHANNELS 6 Xposition Yposition Zposition Zrotation Yrotation Xrotation
													End Site
													{
														OFFSET 0.000000 0.000000 0.100006
													}
												}
											}
										}
									}
									JOINT RightHandPinky1
									{
										OFFSET -0.173492 4.467224 7.976990
										CHANNELS 6 Xposition Yposition Zposition Zrotation Yrotation Xrotation
										JOINT RightHandPinky2
										{
											OFFSET 0.000000 0.000000 3.350403
											CHANNELS 6 Xposition Yposition Zposition Zrotation Yrotation Xrotation
											JOINT RightHandPinky3
											{
												OFFSET 0.000000 0.000000 2.842758
												CHANNELS 6 Xposition Yposition Zposition Zrotation Yrotation Xrotation
												JOINT RightHandPinky4
												{
													OFFSET 0.000000 0.000000 2.639709
													CHANNELS 6 Xposition Yposition Zposition Zrotation Yrotation Xrotation
													End Site
													{
														OFFSET 0.000000 0.000000 0.100006
													}
												}
											}
										}
									}
									JOINT RightForeArmEnd
									{
										OFFSET 0.000000 0.000000 0.000000
										CHANNELS 6 Xposition Yposition Zposition Zrotation Yrotation Xrotation
										End Site
										{
											OFFSET 0.000000 0.000000 0.100006
										}
									}
								}
								JOINT RightArmEnd
								{
									OFFSET 0.000000 0.000000 0.000000
									CHANNELS 6 Xposition Yposition Zposition Zrotation Yrotation Xrotation
									End Site
									{
										OFFSET 0.000000 0.000000 0.100006
									}
								}
							}
						}
					}
					JOINT LeftShoulder
					{
						OFFSET 2.625397 0.000000 11.175217
						CHANNELS 6 Xposition Yposition Zposition Zrotation Yrotation Xrotation
						JOINT LeftArm
						{
							OFFSET 0.000000 0.000000 10.813629
							CHANNELS 6 Xposition Yposition Zposition Zrotation Yrotation Xrotation
							JOINT LeftForeArm
							{
								OFFSET 0.000000 0.000000 28.724777
								CHANNELS 6 Xposition Yposition Zposition Zrotation Yrotation Xrotation
								JOINT LeftHand
								{
									OFFSET 0.644379 0.328857 25.716171
									CHANNELS 6 Xposition Yposition Zposition Zrotation Yrotation Xrotation
									JOINT LeftHandThumb1
									{
										OFFSET 2.867310 -2.944275 3.959564
										CHANNELS 6 Xposition Yposition Zposition Zrotation Yrotation Xrotation
										JOINT LeftHandThumb2
										{
											OFFSET 0.000000 0.000000 3.350403
											CHANNELS 6 Xposition Yposition Zposition Zrotation Yrotation Xrotation
											JOINT LeftHandThumb3
											{
												OFFSET 0.000000 0.000000 3.756516
												CHANNELS 6 Xposition Yposition Zposition Zrotation Yrotation Xrotation
												JOINT LeftHandThumb4
												{
													OFFSET 0.000000 0.000000 3.100006
													CHANNELS 6 Xposition Yposition Zposition Zrotation Yrotation Xrotation
													End Site
													{
														OFFSET 0.000000 0.000000 0.100006
													}
												}
											}
										}
									}
									JOINT LeftHandIndex1
									{
										OFFSET 0.086761 -2.345276 10.030899
										CHANNELS 6 Xposition Yposition Zposition Zrotation Yrotation Xrotation
										JOINT LeftHandIndex2
										{
											OFFSET 0.000000 0.000000 4.061096
											CHANNELS 6 Xposition Yposition Zposition Zrotation Yrotation Xrotation
											JOINT LeftHandIndex3
											{
												OFFSET 0.000000 0.000000 3.248871
												CHANNELS 6 Xposition Yposition Zposition Zrotation Yrotation Xrotation
												JOINT LeftHandIndex4
												{
													OFFSET 0.000000 0.000000 2.639709
													CHANNELS 6 Xposition Yposition Zposition Zrotation Yrotation Xrotation
													End Site
													{
														OFFSET 0.000000 0.000000 0.100006
													}
												}
											}
										}
									}
									JOINT LeftHandMiddle1
									{
										OFFSET -0.104095 -0.006775 9.502945
										CHANNELS 6 Xposition Yposition Zposition Zrotation Yrotation Xrotation
										JOINT LeftHandMiddle2
										{
											OFFSET 0.000000 0.000000 4.568726
											CHANNELS 6 Xposition Yposition Zposition Zrotation Yrotation Xrotation
											JOINT LeftHandMiddle3
											{
												OFFSET 0.000000 0.000000 3.654984
												CHANNELS 6 Xposition Yposition Zposition Zrotation Yrotation Xrotation
												JOINT LeftHandMiddle4
												{
													OFFSET 0.000000 0.000000 2.741241
													CHANNELS 6 Xposition Yposition Zposition Zrotation Yrotation Xrotation
													End Site
													{
														OFFSET 0.000000 0.000000 0.100006
													}
												}
											}
										}
									}
									JOINT LeftHandRing1
									{
										OFFSET -0.086761 2.267456 8.921707
										CHANNELS 6 Xposition Yposition Zposition Zrotation Yrotation Xrotation
										JOINT LeftHandRing2
										{
											OFFSET 0.000000 0.000000 4.061096
											CHANNELS 6 Xposition Yposition Zposition Zrotation Yrotation Xrotation
											JOINT LeftHandRing3
											{
												OFFSET 0.000000 0.000000 3.654984
												CHANNELS 6 Xposition Yposition Zposition Zrotation Yrotation Xrotation
												JOINT LeftHandRing4
												{
													OFFSET 0.000000 0.000000 2.741241
													CHANNELS 6 Xposition Yposition Zposition Zrotation Yrotation Xrotation
													End Site
													{
														OFFSET 0.000000 0.000000 0.100006
													}
												}
											}
										}
									}
									JOINT LeftHandPinky1
									{
										OFFSET 0.173492 4.467224 7.976990
										CHANNELS 6 Xposition Yposition Zposition Zrotation Yrotation Xrotation
										JOINT LeftHandPinky2
										{
											OFFSET 0.000000 0.000000 3.350403
											CHANNELS 6 Xposition Yposition Zposition Zrotation Yrotation Xrotation
											JOINT LeftHandPinky3
											{
												OFFSET 0.000000 0.000000 2.842758
												CHANNELS 6 Xposition Yposition Zposition Zrotation Yrotation Xrotation
												JOINT LeftHandPinky4
												{
													OFFSET 0.000000 0.000000 2.639709
													CHANNELS 6 Xposition Yposition Zposition Zrotation Yrotation Xrotation
													End Site
													{
														OFFSET 0.000000 0.000000 0.100006
													}
												}
											}
										}
									}
									JOINT LeftForeArmEnd
									{
										OFFSET 0.000000 0.000000 0.000000
										CHANNELS 6 Xposition Yposition Zposition Zrotation Yrotation Xrotation
										End Site
										{
											OFFSET 0.000000 0.000000 0.100006
										}
									}
								}
								JOINT LeftArmEnd
								{
									OFFSET 0.000000 0.000000 0.000000
									CHANNELS 6 Xposition Yposition Zposition Zrotation Yrotation Xrotation
									End Site
									{
										OFFSET 0.000000 0.000000 0.100006
									}
								}
							}
						}
					}
				}
			}
		}
	}
	JOINT RightUpLeg
	{
		OFFSET -11.289948 0.000000 0.000000
		CHANNELS 6 Xposition Yposition Zposition Zrotation Yrotation Xrotation
		JOINT RightLeg
		{
			OFFSET 0.000000 0.000000 -38.200321
			CHANNELS 6 Xposition Yposition Zposition Zrotation Yrotation Xrotation
			JOINT RightFoot
			{
				OFFSET 0.000000 0.000000 -39.900856
				CHANNELS 6 Xposition Yposition Zposition Zrotation Yrotation Xrotation
				JOINT RightToeBase
				{
					OFFSET 0.000000 -15.261658 0.000001
					CHANNELS 6 Xposition Yposition Zposition Zrotation Yrotation Xrotation
					JOINT RightToeBaseEnd
					{
						OFFSET 0.000000 -7.370728 0.000001
						CHANNELS 6 Xposition Yposition Zposition Zrotation Yrotation Xrotation
						End Site
						{
							OFFSET 0.000000 0.000000 0.100000
						}
					}
				}
				JOINT RightLegEnd
				{
					OFFSET 0.000000 0.000000 0.000000
					CHANNELS 6 Xposition Yposition Zposition Zrotation Yrotation Xrotation
					End Site
					{
						OFFSET 0.000000 0.000000 0.100000
					}
				}
			}
			JOINT RightUpLegEnd
			{
				OFFSET 0.000000 0.000000 0.000000
				CHANNELS 6 Xposition Yposition Zposition Zrotation Yrotation Xrotation
				End Site
				{
					OFFSET 0.000000 0.000000 0.099998
				}
			}
		}
	}
	JOINT LeftUpLeg
	{
		OFFSET 11.315674 0.000000 0.000000
		CHANNELS 6 Xposition Yposition Zposition Zrotation Yrotation Xrotation
		JOINT LeftLeg
		{
			OFFSET 0.000000 0.000000 -38.200321
			CHANNELS 6 Xposition Yposition Zposition Zrotation Yrotation Xrotation
			JOINT LeftFoot
			{
				OFFSET 0.000000 0.000000 -39.900856
				CHANNELS 6 Xposition Yposition Zposition Zrotation Yrotation Xrotation
				JOINT LeftToeBase
				{
					OFFSET 0.000000 -15.261658 0.000001
					CHANNELS 6 Xposition Yposition Zposition Zrotation Yrotation Xrotation
					JOINT LeftToeBaseEnd
					{
						OFFSET 0.000000 -7.539978 0.000001
						CHANNELS 6 Xposition Yposition Zposition Zrotation Yrotation Xrotation
						End Site
						{
							OFFSET 0.000000 0.000000 0.100000
						}
					}
				}
				JOINT LeftLegEnd
				{
					OFFSET 0.000000 0.000000 0.000000
					CHANNELS 6 Xposition Yposition Zposition Zrotation Yrotation Xrotation
					End Site
					{
						OFFSET 0.000000 0.000000 0.100000
					}
				}
			}
			JOINT LeftUpLegEnd
			{
				OFFSET 0.000000 0.000000 0.000000
				CHANNELS 6 Xposition Yposition Zposition Zrotation Yrotation Xrotation
				End Site
				{
					OFFSET 0.000000 0.000000 0.099998
				}
			}
		}
	}
}
MOTION
Frames: 2
Frame Time: 0.016667
-36.733704 -19.358032 81.908653 45.644727 10.154580 -2.209561 0.000001 2.080087 8.814238 -0.895375 -0.859862 6.345686 -0.000010 0.000027 8.844139 -0.334030 1.014105 2.484519 0.000005 -0.000003 11.682268 -12.409322 -2.149723 3.569876 -0.000038 0.000016 11.746691 -4.734493 -3.446442 3.807504 -0.000004 0.000002 17.658272 -16.647143 -18.181858 10.304759 -0.000010 -0.000010 5.101517 -7.455681 -0.508974 -3.237797 -0.000032 -0.000007 5.101501 -0.933409 -1.943261 -11.171297 0.000001 -0.000002 11.655045 0.000000 0.000000 -0.000000 -2.625397 0.000008 11.175202 10.596060 -77.720258 0.135482 0.000023 0.000013 10.434752 39.009799 -80.941409 -31.775911 -0.000004 -0.000008 29.628426 15.719095 0.680335 8.928398 0.000031 -0.000053 22.857674 25.904020 34.407187 -12.264878 -2.867325 -2.944260 3.959564 33.066862 -11.900344 60.483975 -0.000011 0.000019 3.350399 -1.191926 1.143626 -2.370792 0.000004 0.000028 3.756489 -0.822728 0.799445 -1.644291 -0.000041 -0.000002 3.147313 0.000001 0.000002 -0.000001 -0.086777 -2.345240 10.030899 -2.881738 37.987255 15.493289 -0.000015 -0.000023 4.061100 0.534241 -0.000004 -0.000110 -0.000009 0.000012 3.248899 0.032209 0.000001 -0.002325 0.000011 0.000001 2.639720 -0.000000 -0.000000 0.000000 0.104088 -0.006764 9.502937 2.436565 33.426601 15.690189 -0.000009 -0.000004 4.568736 0.523739 -0.000016 -0.059492 -0.000007 -0.000007 3.655005 0.007369 0.000010 -0.049992 0.000004 0.000001 2.741245 -0.000000 0.000000 -0.000000 0.086777 2.267475 8.921715 10.139043 26.308647 14.618082 0.000007 -0.000030 4.061124 -1.017715 -0.000278 0.146727 -0.000009 0.000029 3.655015 -0.024044 0.000014 0.113820 0.000005 0.000005 2.741254 -0.000001 0.000000 0.000000 -0.173492 4.467236 7.976982 17.685366 19.392753 12.119811 0.000012 -0.000025 3.350399 -2.037789 -0.000548 0.014752 0.000025 0.000013 2.842768 -0.058297 0.000008 0.085328 0.000012 -0.000008 2.639722 0.000001 -0.000001 -0.000000 -0.000013 0.000004 -0.000017 -0.000000 0.000000 0.000000 0.000001 0.000007 0.000013 -0.000002 0.000002 0.000000 2.625397 -0.000010 11.175220 -13.034840 65.393577 -0.205476 0.000046 -0.000038 10.813623 68.693576 61.695726 98.777854 -0.000038 0.000023 28.724821 22.602230 -0.605188 35.290727 0.644330 0.328865 25.716156 20.285196 -55.180135 -25.173811 2.867241 -2.944305 3.959595 -36.145074 34.191592 28.167866 0.000000 0.000008 3.350380 48.050470 -3.964673 -81.120012 0.000000 0.000031 3.756531 33.489620 -10.368150 -56.438413 -0.000009 -0.000004 3.100003 -0.000000 0.000001 0.000001 0.086754 -2.345303 10.030930 162.134388 35.355433 -27.913583 0.000000 0.000072 4.061094 52.981006 101.456716 43.904668 0.000008 -0.000002 3.248867 52.480981 101.456750 43.904651 0.000005 -0.000003 2.639746 -0.000000 -0.000003 0.000001 -0.104129 -0.006794 9.502945 -8.131811 -22.953520 19.718806 0.000037 -0.000012 4.568713 0.580357 0.001731 0.000385 0.000004 0.000015 3.654969 0.206152 0.000006 -0.006671 0.000020 -0.000008 2.741237 0.000001 0.000001 0.000001 -0.086803 2.267468 8.921722 1.003053 -20.976401 13.091402 -0.000015 -0.000028 4.061105 -1.168074 0.000005 -0.112940 0.000009 0.000030 3.654987 -0.296850 -0.000007 -0.082989 0.000011 0.000002 2.741241 -0.000001 0.000001 -0.000001 0.173500 4.467190 7.977013 10.497384 -18.202958 9.256680 -0.000001 -0.000010 3.350410 -2.085680 -0.000005 0.000145 -0.000031 -0.000005 2.842775 -0.069386 0.000000 0.000075 -0.000000 0.000005 2.639714 -0.000001 -0.000000 -0.000001 -0.000043 -0.000009 0.000006 0.000000 0.000001 -0.000000 0.000013 0.000010 -0.000012 -0.000002 -0.000003 0.000002 -11.289996 0.000003 0.000010 -14.861976 -9.930279 -2.593680 -0.000005 0.000026 -38.200279 -0.300165 0.229852 37.442752 -0.000020 -0.000041 -39.900856 -8.058590 -1.285226 -1.463360 0.000033 -15.261725 0.000026 1.301265 -0.060502 -18.113546 0.000045 -7.370778 0.000001 -0.000002 -0.000000 -0.000000 -0.000025 -0.000002 0.000001 0.000000 -0.000000 -0.000001 -0.000038 -0.000010 0.000001 0.000002 0.000000 0.000000 11.315636 0.000023 -0.000015 -7.247001 -6.530675 -23.608474 0.000003 0.000007 -38.200325 -0.956113 2.145109 65.969806 0.000008 0.000046 -39.900856 25.842413 1.365259 3.736928 -0.000025 -15.261663 0.000030 1.651133 0.381345 -25.424109 -0.000017 -7.539991 0.000003 0.000002 0.000001 0.000000 -0.000039 -0.000034 0.000003 0.000006 0.000003 -0.000000 -0.000049 0.000067 -0.000006 -0.000001 -0.000002 0.000000 
-37.114471 -19.230835 81.625046 46.272691 10.462592 -2.372832 -0.000012 2.080063 8.814240 -0.613883 -1.327093 6.676580 0.000008 -0.000002 8.844140 -0.312000 0.738796 2.493599 0.000020 -0.000054 11.682282 -10.684592 -1.877807 3.700778 -0.000007 0.000002 11.746712 -4.027648 -3.041731 3.948228 -0.000031 0.000001 17.658264 -17.721805 -18.661842 9.604983 -0.000001 -0.000004 5.101508 -8.710361 -0.296964 -3.962356 0.000027 -0.000010 5.101493 -0.986440 -1.854262 -10.928940 0.000002 0.000001 11.655074 0.000000 0.000000 0.000000 -2.625412 0.000002 11.175180 11.481007 -76.664325 0.129431 -0.000004 0.000024 10.434706 -22.639389 -82.337459 28.456959 0.000008 -0.000015 29.628433 11.539756 0.129603 13.771850 0.000015 -0.000053 22.857605 30.982158 37.618165 -13.393040 -2.867317 -2.944305 3.959534 32.936248 -12.199625 59.927875 -0.000006 0.000010 3.350384 -1.805606 1.696628 -3.565724 0.000012 -0.000024 3.756510 -1.242650 1.190210 -2.470736 0.000014 -0.000002 3.147338 0.000001 -0.000002 0.000001 -0.086777 -2.345235 10.030922 -3.164118 35.807601 16.231333 -0.000001 0.000021 4.061103 0.535459 0.019704 0.000067 -0.000001 -0.000001 3.248873 0.033354 -0.010986 -0.002404 -0.000004 0.000008 2.639736 -0.000000 -0.000000 0.000002 0.104134 -0.006806 9.502960 1.974405 31.111559 15.931058 0.000015 0.000022 4.568710 0.525135 -0.000012 -0.060337 0.000015 0.000009 3.655003 0.008521 0.000001 -0.050711 0.000000 0.000010 2.741249 -0.000002 -0.000001 0.000000 0.086765 2.267414 8.921730 9.494031 23.828935 14.385604 -0.000025 0.000020 4.061116 -1.018997 -0.000254 0.151045 -0.000001 0.000003 3.655014 -0.025609 0.000021 0.117181 -0.000011 0.000001 2.741258 -0.000000 -0.000000 0.000001 -0.173492 4.467215 7.976990 17.023538 17.088771 11.443348 0.000025 0.000026 3.350389 -2.039022 -0.000351 0.015014 -0.000003 -0.000019 2.842762 -0.060304 0.000001 0.086875 0.000015 0.000008 2.639722 -0.000001 0.000001 0.000001 -0.000020 -0.000015 -0.000012 0.000002 -0.000001 -0.000001 -0.000003 -0.000000 -0.000013 0.000000 0.000002 0.000001 2.625404 -0.000004 11.175232 -13.247867 65.567603 -0.190824 0.000023 -0.000015 10.813628 68.026642 61.444928 96.557817 -0.000046 0.000038 28.724762 22.424380 -0.466149 35.122045 0.644356 0.328869 25.716141 20.806197 -54.924208 -24.946612 2.867352 -2.944290 3.959579 -36.145081 34.191579 28.167852 0.000019 0.000031 3.350378 48.050476 -3.964646 -81.120019 -0.000023 0.000015 3.756477 33.489596 -10.368152 -56.438403 -0.000013 0.000016 3.100017 -0.000002 0.000003 -0.000003 0.086755 -2.345280 10.030884 162.332327 34.801402 -26.691829 0.000050 0.000008 4.061100 51.264009 101.827957 42.151659 0.000031 -0.000006 3.248859 50.764128 101.827950 42.151717 -0.000012 -0.000007 2.639720 0.000002 -0.000002 0.000001 -0.104068 -0.006752 9.502945 -8.026753 -22.490321 19.048327 0.000009 0.000030 4.568728 0.580539 0.001878 0.000382 0.000012 -0.000001 3.654978 0.206478 0.000007 -0.006689 -0.000007 0.000008 2.741213 -0.000001 0.000001 0.000002 -0.086781 2.267472 8.921715 1.058339 -20.647187 13.183758 -0.000012 -0.000012 4.061122 -1.168358 0.000180 -0.111063 -0.000036 -0.000011 3.654965 -0.294487 -0.000001 -0.081614 -0.000007 0.000013 2.741254 -0.000002 -0.000001 -0.000002 0.173527 4.467232 7.977005 10.486809 -18.187918 10.187416 0.000000 -0.000015 3.350409 -2.085977 -0.000000 0.000151 0.000002 -0.000028 2.842780 -0.069727 -0.000003 0.000071 -0.000038 0.000003 2.639719 -0.000001 0.000001 -0.000000 -0.000016 -0.000001 0.000026 0.000001 0.000003 0.000007 0.000004 -0.000007 -0.000007 0.000002 0.000003 -0.000001 -11.289998 -0.000012 -0.000010 -15.500192 -10.312370 -2.689364 -0.000024 0.000028 -38.200310 -0.274337 0.215308 38.125443 0.000011 -0.000024 -39.900852 -8.243696 -1.264573 -2.170478 -0.000013 -15.261749 0.000028 1.344131 -0.061254 -17.646928 -0.000014 -7.370745 0.000002 0.000003 0.000001 -0.000001 -0.000045 -0.000001 0.000001 0.000000 0.000000 -0.000000 0.000011 0.000003 0.000001 -0.000001 -0.000001 -0.000000 11.315666 -0.000031 0.000057 -5.235354 -7.423991 -24.925551 -0.000039 0.000005 -38.200302 -0.784499 1.893644 67.491824 0.000013 -0.000027 -39.900860 23.483017 1.914732 3.975706 0.000011 -15.261706 0.000008 1.608740 0.164853 -25.704310 -0.000026 -7.540028 0.000002 -0.000002 0.000000 -0.000000 0.000005 -0.000005 0.000003 0.000001 0.000003 -0.000000 -0.000039 -0.000008 -0.000008 0.000001 0.000000 -0.000003 
